<?xml version="1.0" encoding="UTF-8" standalone="no"?>
<svg width="164" height="40" viewBox="0 0 161 40" xmlns="http://www.w3.org/2000/svg">
    <!-- Background -->
    <rect width="161" height="40" rx="6" fill="#09090b" stroke="#27272a" stroke-width="1"/>

    <!-- Text -->
    <text x="15" y="26" font-family="ui-sans-serif, system-ui, -apple-system, BlinkMacSystemFont, 'Segoe UI', Roboto, 'Helvetica Neue', Arial, 'Noto Sans', sans-serif" font-size="14" font-weight="600" fill="#fafafa">Disassemble</text>

    <!-- Separator line -->
    <path stroke="#27272a" d="M115 8v24" stroke-width="1"/>

    <!-- Coffee logo (scaled positioned to the right) -->
    <g transform="translate(130, 11) scale(0.9)">
        <path d="M 8,1 V 3" stroke="#ff0000" stroke-width="1.5" stroke-linecap="round" fill="none"/>
        <path d="M 12,1 V 3" stroke="#ff0000" stroke-width="1.5" stroke-linecap="round" fill="none"/>
        <path d="m 14,7 a 1,1 0 0 1 1,1 v 8 a 4,4 0 0 1 -4,4 H 5 A 4,4 0 0 1 1,16 V 8 A 1,1 0 0 1 2,7 h 14 a 4,4 0 1 1 0,8 h -1" stroke="#ff0000" stroke-width="1.5" stroke-linecap="round" stroke-linejoin="round" fill="none"/>
        <path d="M 4,1 V 3" stroke="#ff0000" stroke-width="1.5" stroke-linecap="round" fill="none"/>
    </g>
</svg>
