<?xml version="1.0" encoding="UTF-8" standalone="no"?>
<svg width="200" height="60" viewBox="0 0 200 60" xmlns="http://www.w3.org/2000/svg">
    <!-- Background -->
    <rect width="200" height="60" rx="6" fill="#09090b" stroke="#27272a" stroke-width="1"/>

    <!-- Text -->
    <text x="16" y="25" font-family="ui-sans-serif, system-ui, -apple-system, BlinkMacSystemFont, 'Segoe UI', Roboto, 'Helvetica Neue', Arial, 'Noto Sans', sans-serif" font-size="12" font-weight="500" fill="#fafafa">Import into</text>
    <text x="16" y="44" font-family="ui-sans-serif, system-ui, -apple-system, BlinkMacSystemFont, 'Segoe UI', Roboto, 'Helvetica Neue', Arial, 'Noto Sans', sans-serif" font-size="16" font-weight="700" fill="#fafafa">slicer</text>

    <!-- Coffee logo (scaled and positioned to the right) -->
    <g transform="translate(155, 16) scale(1.3)">
        <path d="M 8,1 V 3" stroke="#ff0000" stroke-width="1.5" stroke-linecap="round" fill="none"/>
        <path d="M 12,1 V 3" stroke="#ff0000" stroke-width="1.5" stroke-linecap="round" fill="none"/>
        <path d="m 14,7 a 1,1 0 0 1 1,1 v 8 a 4,4 0 0 1 -4,4 H 5 A 4,4 0 0 1 1,16 V 8 A 1,1 0 0 1 2,7 h 14 a 4,4 0 1 1 0,8 h -1" stroke="#ff0000" stroke-width="1.5" stroke-linecap="round" stroke-linejoin="round" fill="none"/>
        <path d="M 4,1 V 3" stroke="#ff0000" stroke-width="1.5" stroke-linecap="round" fill="none"/>
    </g>
</svg>
